<svg aria-hidden="true" style="position: absolute; width: 0; height: 0; overflow: hidden;" version="1.1" xmlns="http://www.w3.org/2000/svg" xmlns:xlink="http://www.w3.org/1999/xlink">
<defs>
<symbol id="icon-menu-icon" viewBox="0 0 44 32">
<path  d="M19.108 26.696h21.484c1.227 0 2.222 0.995 2.222 2.222s-0.995 2.222-2.222 2.222h-21.484c-1.227 0-2.222-0.995-2.222-2.222s0.995-2.222 2.222-2.222z"></path>
<path d="M3.282 13.363h37.311c1.227 0 2.222 0.995 2.222 2.222s-0.995 2.222-2.222 2.222h-37.311c-1.227 0-2.222-0.995-2.222-2.222s0.995-2.222 2.222-2.222z"></path>
<path  d="M3.282 0.029h37.311c1.227 0 2.222 0.995 2.222 2.222s-0.995 2.222-2.222 2.222h-37.311c-1.227 0-2.222-0.995-2.222-2.222s0.995-2.222 2.222-2.222z"></path>
</symbol>
<symbol id="icon-switch" viewBox="0 0 15 32">
<path fill="none" stroke="#fff" style="stroke: var(--color1, #fff)" stroke-linejoin="round" stroke-linecap="round" stroke-miterlimit="4" stroke-width="2.8333" d="M1.534 1.647v28.693l11.573-14.186-11.573-14.507z"></path>
</symbol>
<symbol id="icon-twitch" viewBox="0 0 34 32">
<path  d="M33.215 21.915v-21.802h-28.667l-3.583 3.868v20.396h8.959v6.33h3.942l4.3-4.571h10.75l4.3-4.22zM12.072 21.563h-5.733c-0.394 0-0.717-0.316-0.717-0.703v-17.231c0-0.387 0.322-0.703 0.717-0.703h22.934c0.394 0 0.717 0.317 0.717 0.703v13.363c0 0.193-0.072 0.369-0.206 0.501l-3.942 3.868c-0.134 0.132-0.323 0.202-0.511 0.202h-6.585l-5.554 3.745c-0.116 0.079-0.26 0.123-0.403 0.123-0.116 0-0.224-0.026-0.331-0.079-0.242-0.123-0.385-0.36-0.385-0.624v-3.165z"></path>
<path  d="M22.823 15.41v-7.033h-2.867v7.033h2.867zM15.656 15.41v-7.033h-2.867v7.033h2.867z"></path>
</symbol>
<symbol id="icon-youtube" viewBox="0 0 44 32">
<path  d="M34.309 0.961h-24.624c-4.822 0-8.741 3.987-8.741 8.894v12.519c0 4.916 3.918 8.894 8.741 8.894h24.615c4.831 0 8.741-3.987 8.741-8.894v-12.519c0.009-4.907-3.909-8.894-8.732-8.894zM28.391 16.732l-11.517 5.586c-0.311 0.149-0.658-0.074-0.658-0.428v-11.524c0-0.353 0.365-0.576 0.667-0.418l11.517 5.939c0.347 0.177 0.338 0.678-0.009 0.846z"></path>
</symbol>
<symbol id="icon-xbox-icon" viewBox="0 0 32 32">
<path  d="M10.892 3.26c1.635 0.641 3.216 1.488 4.706 2.523 0.17 0.115 0.363 0.175 0.557 0.175s0.388-0.061 0.557-0.175c1.49-1.034 3.071-1.887 4.706-2.529 0.369-0.145 0.618-0.508 0.612-0.907 0-0.399-0.248-0.756-0.624-0.895-3.271-1.24-7.232-1.24-10.496 0-0.37 0.139-0.624 0.502-0.624 0.895s0.23 0.768 0.606 0.913z"></path>
<path  d="M24.938 3.266c-0.309-0.212-0.703-0.23-1.036-0.042-1.811 1.041-3.561 2.232-5.215 3.545-0.218 0.175-0.351 0.436-0.363 0.714s0.097 0.551 0.297 0.744c3.428 3.261 8.177 13.261 9.267 17.858-2.362-3.993-7.632-13.388-11.078-16.6-0.37-0.345-0.951-0.345-1.32 0-3.452 3.212-8.704 12.613-11.066 16.612 1.090-4.598 5.827-14.61 9.255-17.87 0.206-0.194 0.315-0.466 0.303-0.744s-0.145-0.538-0.363-0.714c-1.654-1.313-3.41-2.505-5.215-3.545-0.321-0.188-0.727-0.169-1.036 0.042-4.209 2.898-6.723 7.659-6.723 12.74 0 3.714 1.339 7.296 3.779 10.091 2.919 3.424 7.189 5.396 11.726 5.396s8.813-1.966 11.738-5.402c2.429-2.783 3.767-6.364 3.767-10.085 0-5.082-2.514-9.843-6.717-12.74z"></path>
</symbol>
<symbol id="icon-steam-icon" viewBox="0 0 32 32">
<path  d="M16.283 31.493c-6.95 0-12.835-4.541-14.827-10.806 0.767 0.43 3.596 1.603 3.751 1.652l2.079 0.686c0.935 2.763 3.949 4.243 6.723 3.309 1.81-0.606 3.149-2.132 3.514-3.995l5.979-4.248c3.519-0.333 6.098-3.433 5.769-6.931-0.31-3.235-3.024-5.719-6.298-5.754-3.504 0.005-6.353 2.807-6.398 6.286l-3.589 4.358c-1.2-0.174-2.419 0.084-3.439 0.725l-3.949-1.779c-0.165-0.075-3.253-1.197-3.403-1.103-0.055 0.035-0.151 0.062-0.252 0.091-0.184 0.052-0.385 0.109-0.385 0.228l0.413 6.475c-0.265-0.077-0.446-0.123-0.559-0.143-0.44-1.434-0.677-2.956-0.677-4.533 0-8.552 6.961-15.484 15.549-15.484s15.549 6.932 15.549 15.484c0 8.552-6.961 15.484-15.549 15.484zM26.172 11.765c0 1.756-1.432 3.18-3.199 3.18s-3.199-1.424-3.199-3.18c0-1.756 1.432-3.18 3.199-3.18s3.199 1.424 3.199 3.18zM25.108 11.765c0 1.172-0.956 2.122-2.135 2.122s-2.134-0.95-2.134-2.122c0-1.172 0.956-2.122 2.134-2.122s2.135 0.95 2.135 2.122zM10.922 24.167c0.43 0.209 0.905 0.318 1.385 0.318 0.365 0 0.72-0.060 1.070-0.174 0.805-0.278 1.46-0.86 1.829-1.62 0.77-1.585 0.1-3.483-1.49-4.248-0.27-0.129-0.585-0.020-0.715 0.244-0.13 0.268-0.020 0.581 0.245 0.71 0.035 0.015 0.070 0.030 0.105 0.050 1.050 0.537 1.455 1.814 0.915 2.857s-1.829 1.446-2.874 0.909c-0.27-0.129-0.585-0.020-0.715 0.244-0.13 0.268-0.020 0.581 0.245 0.71z"></path>
</symbol>
<symbol id="icon-scroll-down" viewBox="0 0 28 28">
<path d="M26.297 12.625l-11.594 11.578c-0.391 0.391-1.016 0.391-1.406 0l-11.594-11.578c-0.391-0.391-0.391-1.031 0-1.422l2.594-2.578c0.391-0.391 1.016-0.391 1.406 0l8.297 8.297 8.297-8.297c0.391-0.391 1.016-0.391 1.406 0l2.594 2.578c0.391 0.391 0.391 1.031 0 1.422z"></path>
</symbol>
<symbol id="icon-facebook" viewBox="0 0 16 32">
<path  d="M10.264 31.295h-6.546v-15.19h-3.272v-5.237h3.272v-3.142c0-4.27 1.848-6.813 7.093-6.813h4.368v5.237h-2.728c-2.045 0-2.179 0.733-2.179 2.099l-0.008 2.619h4.947l-0.579 5.237h-4.368v15.19z"></path>
</symbol>
<symbol id="icon-cursor" viewBox="0 0 18 32">
<path  d="M0.092 1.039l16 16h-9.6l-6.4 6.4v-22.4z"></path>
<path fill="none" stroke="#fff" style="stroke: var(--color1, #fff)" stroke-linejoin="miter" stroke-linecap="butt" stroke-miterlimit="4" stroke-width="4.8" d="M5.521 14.548l6.4 16"></path>
</symbol>
<symbol id="icon-twitter2" viewBox="0 0 32 32">
<path d="M32 7.075c-1.175 0.525-2.444 0.875-3.769 1.031 1.356-0.813 2.394-2.1 2.887-3.631-1.269 0.75-2.675 1.3-4.169 1.594-1.2-1.275-2.906-2.069-4.794-2.069-3.625 0-6.563 2.938-6.563 6.563 0 0.512 0.056 1.012 0.169 1.494-5.456-0.275-10.294-2.888-13.531-6.862-0.563 0.969-0.887 2.1-0.887 3.3 0 2.275 1.156 4.287 2.919 5.463-1.075-0.031-2.087-0.331-2.975-0.819 0 0.025 0 0.056 0 0.081 0 3.181 2.263 5.838 5.269 6.437-0.55 0.15-1.131 0.231-1.731 0.231-0.425 0-0.831-0.044-1.237-0.119 0.838 2.606 3.263 4.506 6.131 4.563-2.25 1.762-5.075 2.813-8.156 2.813-0.531 0-1.050-0.031-1.569-0.094 2.913 1.869 6.362 2.95 10.069 2.95 12.075 0 18.681-10.006 18.681-18.681 0-0.287-0.006-0.569-0.019-0.85 1.281-0.919 2.394-2.075 3.275-3.394z"></path>
</symbol>
<symbol id="icon-cancel" viewBox="0 0 32 32">
<path d="M30.721 6.774l-9.197 9.253 9.197 9.198c0.385 0.384 0.385 1.007 0 1.392l-4.176 4.175c-0.383 0.385-1.006 0.385-1.391 0l-9.182-9.182-9.127 9.182c-0.384 0.385-1.007 0.385-1.392 0l-4.175-4.175c-0.384-0.385-0.384-1.008 0-1.392l9.127-9.182-9.126-9.126c-0.384-0.384-0.384-1.007 0-1.392l4.175-4.175c0.384-0.385 1.007-0.385 1.392 0l9.11 9.11 9.199-9.253c0.385-0.385 1.008-0.385 1.391 0l4.176 4.175c0.383 0.385 0.383 1.008-0.001 1.392z"></path>
</symbol>
</defs>
</svg>

